<svg width="34" height="34" viewBox="0 0 34 34" fill="none" xmlns="http://www.w3.org/2000/svg">
<g opacity="0.4">
<path d="M26.9268 12.9468C26.9268 14.9285 26.3391 16.7461 25.3278 18.2631C23.8518 20.4498 21.5148 21.9941 18.7951 22.3905C18.3305 22.4725 17.8521 22.5135 17.3601 22.5135C16.8681 22.5135 16.3898 22.4725 15.9251 22.3905C13.2055 21.9941 10.8685 20.4498 9.39246 18.2631C8.38112 16.7461 7.79346 14.9285 7.79346 12.9468C7.79346 7.65779 12.0711 3.38013 17.3601 3.38013C22.6491 3.38013 26.9268 7.65779 26.9268 12.9468Z" stroke="#381C94" stroke-width="1.09333" stroke-linecap="round" stroke-linejoin="round"/>
<path d="M30.0015 25.889L27.7465 26.4219C27.2408 26.5449 26.8445 26.9276 26.7352 27.4333L26.2568 29.4423C25.9972 30.5356 24.6032 30.8636 23.8788 30.0026L17.3598 22.5133L10.8408 30.0163C10.1165 30.8773 8.72251 30.5493 8.46284 29.4559L7.98451 27.4469C7.86151 26.9413 7.46517 26.5449 6.97317 26.4356L4.71817 25.9026C3.67951 25.6566 3.31051 24.3583 4.06217 23.6066L9.39217 18.2766C10.8682 20.4633 13.2052 22.0076 15.9248 22.404C16.3895 22.486 16.8678 22.527 17.3598 22.527C17.8518 22.527 18.3302 22.486 18.7948 22.404C21.5145 22.0076 23.8515 20.4633 25.3275 18.2766L30.6575 23.6066C31.4092 24.3446 31.0402 25.643 30.0015 25.889Z" stroke="#381C94" stroke-width="1.09333" stroke-linecap="round" stroke-linejoin="round"/>
<path d="M18.1525 8.81933L18.9588 10.432C19.0681 10.6507 19.3551 10.8693 19.6148 10.9103L21.0771 11.1563C22.0065 11.3067 22.2251 11.99 21.5555 12.6597L20.4211 13.794C20.2298 13.9853 20.1205 14.3543 20.1888 14.6277L20.5168 16.0353C20.7765 17.1423 20.1888 17.5796 19.2048 16.992L17.8381 16.1856C17.5921 16.0353 17.1821 16.0353 16.9361 16.1856L15.5695 16.992C14.5855 17.566 13.9978 17.1423 14.2575 16.0353L14.5855 14.6277C14.6401 14.368 14.5445 13.9853 14.3531 13.794L13.2188 12.6597C12.5491 11.99 12.7678 11.3203 13.6971 11.1563L15.1595 10.9103C15.4055 10.8693 15.6925 10.6507 15.8018 10.432L16.6081 8.81933C17.0045 7.94466 17.7151 7.94466 18.1525 8.81933Z" stroke="#381C94" stroke-width="1.09333" stroke-linecap="round" stroke-linejoin="round"/>
</g>
</svg>
